<?xml version="1.0" encoding="UTF-8"?>
<svg version="1.1" xmlns="http://www.w3.org/2000/svg" width="512" height="512">
<path d="M0 0 C17.13451663 17.13451663 26.03447224 36.5075767 29.37109375 60.37109375 C29.50128906 61.23476562 29.63148438 62.0984375 29.765625 62.98828125 C33.06606333 89.12775284 27.6442 115.24849528 18.37109375 139.62109375 C18.06349121 140.46075684 17.75588867 141.30041992 17.43896484 142.16552734 C15.87489976 146.05746558 14.98562048 147.95950755 11.42578125 150.34375 C4.57101705 152.64912466 -4.66815517 155.48347523 -11.65625 152.5078125 C-12.95056774 151.82463135 -14.22739941 151.10636817 -15.4765625 150.34375 C-24.86831727 146.09956318 -41.61756895 147.09034116 -51.4921875 149.5546875 C-59.87346473 152.75704023 -65.14312062 158.16278101 -68.94140625 166.12109375 C-70.75265365 174.6833542 -70.27923818 182.80020295 -65.62890625 190.37109375 C-60.30033871 196.75235183 -54.75008037 199.85312351 -46.62890625 201.37109375 C-41.7444826 201.7036961 -36.89656278 201.65684998 -32.00390625 201.55859375 C-30.71355469 201.54505859 -29.42320312 201.53152344 -28.09375 201.51757812 C-24.93835597 201.48251819 -21.78386047 201.43337519 -18.62890625 201.37109375 C-18.64630859 202.71131592 -18.64630859 202.71131592 -18.6640625 204.07861328 C-18.67308594 205.25020996 -18.68210937 206.42180664 -18.69140625 207.62890625 C-18.70880859 209.37131592 -18.70880859 209.37131592 -18.7265625 211.14892578 C-18.54667793 217.08421724 -16.68632146 220.61990258 -12.44140625 224.80859375 C-3.56531442 232.01237843 7.43355191 236.11610538 18.05859375 239.99609375 C42.46746688 248.93854661 67.25424989 260.77816599 87.37109375 277.37109375 C88.13035156 277.97695313 88.88960938 278.5828125 89.671875 279.20703125 C101.75010701 289.19795715 110.21451617 302.79912077 111.890625 318.52734375 C112.88055361 331.27686608 113.08865259 345.03178781 104.8984375 355.625 C102.79796873 358.02630317 100.76778984 360.25308325 98.37109375 362.37109375 C97.80519531 362.89058594 97.23929687 363.41007812 96.65625 363.9453125 C45.28706491 407.82110398 -67.56830717 395.72766847 -130.49475098 390.90296936 C-166.64281021 387.94249383 -211.74786862 384.04651646 -236.90625 354.63671875 C-244.41959077 344.75522749 -246.7788228 332.4185942 -245.16015625 320.21875 C-243.98404861 312.88310053 -242.34192563 305.86887767 -238.62890625 299.37109375 C-238.03335938 298.30568359 -238.03335938 298.30568359 -237.42578125 297.21875 C-225.65363333 277.97061159 -204.50367931 266.74963008 -185.49853516 255.99755859 C-182.94338153 254.54933387 -180.39976788 253.08326939 -177.859375 251.609375 C-162.94643354 243.03723933 -147.24610833 235.89975393 -131.16967773 229.7902832 C-123.15121144 226.6396229 -118.05713432 222.96339745 -114.51171875 215.05078125 C-112.2515318 208.19021379 -113.0465941 202.09821805 -116.24609375 195.69921875 C-119.03162015 191.00946243 -122.34262766 186.71691389 -125.62890625 182.37109375 C-152.9253095 145.83677552 -167.33057341 103.70190009 -161.3203125 57.765625 C-157.70337892 33.1693986 -145.60360224 9.59656132 -125.62890625 -5.62890625 C-88.57403911 -29.70803848 -33.60578973 -31.8851733 0 0 Z " fill="#000000" transform="translate(322.62890625,94.62890625)"/>
<path d="M0 0 C28.15283695 23.89743017 48.67389721 56.74744819 53 94 C53.10472212 95.95830371 53.20888294 97.91663751 53.3125 99.875 C53.62138638 103.63489289 53.76745431 104.70765685 56.1875 107.75 C57.115625 108.4925 58.04375 109.235 59 110 C60.08879427 111.14216654 61.15055453 112.31056255 62.1875 113.5 C62.67605469 114.0465625 63.16460937 114.593125 63.66796875 115.15625 C66.62485176 119.24906168 67.25425095 123.0498998 67.29052734 128.02441406 C67.30328705 129.21625305 67.31604675 130.40809204 67.32919312 131.63604736 C67.33253159 133.55643829 67.33253159 133.55643829 67.3359375 135.515625 C67.34237261 136.85455464 67.3491015 138.1934829 67.35610962 139.53240967 C67.3680641 142.33658096 67.37179252 145.14062926 67.37060547 147.94482422 C67.37040278 151.51675962 67.39766006 155.08789494 67.43214989 158.65964127 C67.45452707 161.4256951 67.45843968 164.19155998 67.45738602 166.95769501 C67.46085703 168.90791228 67.48245677 170.85807057 67.50448608 172.8081665 C67.46180973 181.16169676 66.48862053 187.76987106 61.0703125 194.33984375 C60.42835938 194.86707031 59.78640625 195.39429688 59.125 195.9375 C58.48820312 196.48277344 57.85140625 197.02804688 57.1953125 197.58984375 C52.34052614 200.70830972 47.74760815 201.27512755 42.0625 201.25 C40.31646484 201.25773437 40.31646484 201.25773437 38.53515625 201.265625 C35 201 35 201 31.46875 199.765625 C27.97426358 198.64755711 27.97426358 198.64755711 24.74609375 200.34375 C23.65425781 201.0553125 22.56242187 201.766875 21.4375 202.5 C20.202582 203.26198819 18.96420238 204.01839101 17.72265625 204.76953125 C17.1002002 205.14932129 16.47774414 205.52911133 15.83642578 205.92041016 C2.86797019 213.54424831 -12.36514867 216.90973195 -27.10327148 219.10717773 C-34.44458284 220.20484535 -38.74839079 221.50968128 -44 227 C-49.03664476 228.42236176 -54.18300047 228.18389444 -59.375 228.1875 C-60.29539062 228.19974609 -61.21578125 228.21199219 -62.1640625 228.22460938 C-74.27762737 228.25056701 -74.27762737 228.25056701 -78.9609375 224.37890625 C-79.42757812 223.77949219 -79.89421875 223.18007813 -80.375 222.5625 C-81.09816406 221.66724609 -81.09816406 221.66724609 -81.8359375 220.75390625 C-84.36055744 216.95003258 -84.3007812 213.43652272 -84 209 C-82.01155883 203.66260527 -79.09332352 200.54666176 -74 198 C-69.93261238 197.74232296 -65.86347546 197.72896623 -61.78857422 197.70483398 C-59.77110916 197.68767949 -57.75530907 197.64380129 -55.73828125 197.59960938 C-54.45824219 197.59123047 -53.17820312 197.58285156 -51.859375 197.57421875 C-50.68858398 197.55963623 -49.51779297 197.54505371 -48.31152344 197.5300293 C-44.04571257 198.13543227 -41.051838 199.948162 -38 203 C-18.81597461 203.46871964 2.73929917 196.38496729 18 185 C17.83832336 184.45244553 17.67664673 183.90489105 17.5100708 183.34074402 C16.931293 180.68469964 16.85822978 178.26704128 16.83886719 175.5480957 C16.82925964 174.45628494 16.8196521 173.36447418 16.80975342 172.23957825 C16.8033786 170.47549873 16.8033786 170.47549873 16.796875 168.67578125 C16.79117493 167.45980759 16.78547485 166.24383392 16.77960205 164.99101257 C16.77015511 162.41629912 16.76361929 159.8415736 16.75976562 157.2668457 C16.75008026 153.34499751 16.71906119 149.4236779 16.6875 145.50195312 C16.68096763 142.99739894 16.67571808 140.49284101 16.671875 137.98828125 C16.6595282 136.8223494 16.6471814 135.65641754 16.63446045 134.45515442 C16.65624267 126.41630792 17.36190646 119.12044257 22.375 112.5625 C24.96799016 110.0312477 26.66693048 109.19834439 30 108 C27.00947033 82.70898258 20.7583268 60.4473899 5 40 C4.37569092 39.18837402 4.37569092 39.18837402 3.73876953 38.36035156 C-16.25043307 12.7061623 -45.29420385 -2.92440338 -77.36181641 -7.17529297 C-108.04862669 -10.85233735 -140.18561469 -2.98512924 -164.875 15.9375 C-166.94572263 17.59382465 -168.97146196 19.29091677 -171 21 C-171.92039062 21.74507812 -172.84078125 22.49015625 -173.7890625 23.2578125 C-197.10458803 43.07936879 -210.841905 73.18862064 -213.6875 103.375 C-213.80074545 104.91602637 -213.90871021 106.45751727 -214 108 C-213.24074219 108.25394531 -212.48148438 108.50789062 -211.69921875 108.76953125 C-208.79665149 110.09269867 -207.67482668 111.14614804 -205.8125 113.6875 C-205.32394531 114.33074219 -204.83539063 114.97398437 -204.33203125 115.63671875 C-200.38892593 122.63255077 -200.69308716 129.82338785 -200.69921875 137.65234375 C-200.69493362 138.86644424 -200.6906485 140.08054474 -200.68623352 141.33143616 C-200.68050471 143.89241921 -200.67997924 146.45341853 -200.68432617 149.0144043 C-200.6874864 152.92069383 -200.66400644 156.82622583 -200.63867188 160.73242188 C-200.63639869 163.22656155 -200.63569547 165.72070325 -200.63671875 168.21484375 C-200.627509 169.37652573 -200.61829926 170.5382077 -200.60881042 171.73509216 C-200.65982076 180.72680884 -202.12423575 187.85380023 -208 195 C-216.0399565 201.02182976 -223.04877197 201.74878379 -233 201 C-240.10473121 199.37161635 -245.09431368 195.08032053 -249 189 C-250.62386213 184.82249529 -251.25794632 181.31736731 -251.29052734 176.84619141 C-251.30328705 175.65120026 -251.31604675 174.45620911 -251.32919312 173.2250061 C-251.33141876 171.94676971 -251.33364441 170.66853333 -251.3359375 169.3515625 C-251.34237402 168.01166648 -251.349103 166.67177183 -251.35610962 165.33187866 C-251.36805025 162.52948755 -251.37179375 159.72721942 -251.37060547 156.92480469 C-251.37040239 153.35167992 -251.39770645 149.77935146 -251.43214989 146.20641518 C-251.45449733 143.44040374 -251.45844065 140.67458166 -251.45738602 137.90848923 C-251.46086182 135.95656176 -251.48247248 134.00469339 -251.50448608 132.05288696 C-251.46227352 123.81176504 -250.73455671 117.97706039 -244.89453125 111.7578125 C-244.20746094 111.21898437 -243.52039063 110.68015625 -242.8125 110.125 C-239.30469144 107.32656274 -238.1540342 106.29480234 -237.60546875 101.68359375 C-237.5394043 101.01062256 -237.47333984 100.33765137 -237.40527344 99.64428711 C-233.53003735 60.37493846 -214.3672122 25.08606041 -184.02270508 -0.14477539 C-131.29166352 -42.29016881 -52.54882707 -43.01170273 0 0 Z " fill="#000000" transform="translate(348,57)"/>
</svg>
