<?xml version="1.0" encoding="UTF-8"?>
<svg version="1.1" xmlns="http://www.w3.org/2000/svg" width="512" height="512">
<path d="M0 0 C0.67772461 0.21946793 1.35544922 0.43893585 2.05371094 0.66505432 C9.63663619 3.14418159 17.16563683 5.78823928 24.69970703 8.41113281 C40.39229556 13.86998809 55.94646367 19.2435692 72.18359375 22.86328125 C83.34469555 25.37233899 91.50172413 28.06864957 97.92578125 38.19140625 C100.06643709 46.7540296 99.75117168 54.05499191 95.36328125 61.80859375 C92.54885925 65.81035004 89.57436595 68.37104468 84.86328125 69.94140625 C76.90234336 70.62391628 69.874722 69.27953415 62.24609375 67.1328125 C61.18591034 66.84663559 60.12572693 66.56045868 59.03341675 66.26560974 C55.6813609 65.3579589 52.33485269 64.43155152 48.98828125 63.50390625 C45.61922844 62.58413269 42.24915172 61.66819448 38.87887573 60.75291443 C36.79109818 60.18439519 34.70423947 59.61248794 32.61843872 59.03675842 C31.67330414 58.77656418 30.72816956 58.51636993 29.75439453 58.24829102 C28.92819611 58.01956802 28.10199768 57.79084503 27.25076294 57.55519104 C22.14374725 56.0367014 22.14374725 56.0367014 17.11328125 57.06640625 C14.72276414 58.76647151 14.72276414 58.76647151 13.86328125 61.31640625 C13.86328125 64.75489592 14.82157191 66.19766714 16.86328125 68.94140625 C19.27171332 70.21393456 19.27171332 70.21393456 22.12231445 70.88598633 C23.7359362 71.33588676 23.7359362 71.33588676 25.38215637 71.7948761 C27.13044991 72.24832649 27.13044991 72.24832649 28.9140625 72.7109375 C30.11959274 73.03680344 31.32512299 73.36266937 32.56718445 73.69841003 C35.12489662 74.38441158 37.68325951 75.06220837 40.24633789 75.72729492 C42.85105577 76.40400252 45.45044133 77.09686339 48.04614258 77.80737305 C51.80973857 78.83620934 55.57917027 79.83988949 59.3515625 80.8359375 C60.49482498 81.14835892 61.63808746 81.46078033 62.81599426 81.78266907 C73.42572929 84.4978525 84.76023465 86.27362963 94.66015625 80.62109375 C97.01756432 78.82377909 98.64516928 76.9448165 100.48828125 74.62890625 C104.33230572 69.9932411 108.65026522 67.72618623 113.98754883 65.2253418 C120.04109446 62.38801863 125.86412522 59.24542927 131.67578125 55.94140625 C132.64225586 55.39242676 133.60873047 54.84344727 134.60449219 54.27783203 C143.32058133 49.29741174 151.95040444 44.17358971 160.57861328 39.04296875 C222.72999356 2.10201405 222.72999356 2.10201405 242.65234375 6.56640625 C249.80177789 8.98555013 254.58896678 13.51488815 258.02734375 20.20703125 C260.1060618 27.00657627 260.25137284 37.0447124 257.30078125 43.56640625 C252.47229808 50.83350634 244.77170535 55.03244264 237.42578125 59.37890625 C235.36377683 60.61584403 233.30260475 61.8541702 231.2421875 63.09375 C230.18660645 63.72780762 229.13102539 64.36186523 228.04345703 65.01513672 C222.9482924 68.10133731 217.90638055 71.27109235 212.86328125 74.44140625 C204.04866538 79.97235598 195.18724124 85.41955219 186.2902832 90.81689453 C179.16145206 95.14378615 172.06291444 99.51729176 164.9765625 103.91333008 C156.96261398 108.88397866 148.93443694 113.83128407 140.89868164 118.76660156 C135.79402411 121.90247599 130.6926382 125.04306025 125.60777283 128.21092224 C123.86216155 129.29808643 122.11523743 130.38310991 120.36791992 131.4675293 C118.18969959 132.82028233 116.01388697 134.17692386 113.84106445 135.53833008 C96.18733489 146.48077142 80.61504954 153.06886531 59.70385742 148.24853516 C58.92486934 148.07187632 58.14588125 147.89521748 57.34328747 147.71320534 C48.01627154 145.56450387 38.7790699 143.08142687 29.5390625 140.58984375 C27.65350226 140.08436797 25.76785488 139.57921709 23.88212585 139.07437134 C18.97682889 137.76013656 14.0727943 136.44125134 9.16900635 135.12139893 C5.16148232 134.04362249 1.15306748 132.96918203 -2.85539532 131.89490318 C-11.14890632 129.67215318 -19.4418582 127.44730736 -27.7331543 125.21630859 C-28.48387207 125.01471634 -29.23458984 124.81312408 -30.00805664 124.60542297 C-30.71528366 124.41492874 -31.42251068 124.22443451 -32.15116882 124.02816772 C-32.82147818 123.84822643 -33.49178753 123.66828514 -34.18240929 123.48289108 C-36.11057721 122.94864935 -38.02523201 122.36639127 -39.93928528 121.78359985 C-45.70098935 120.26598569 -50.67194831 121.94209999 -56.13671875 123.94140625 C-60.50707247 117.08808765 -64.55403601 110.06680753 -68.57421875 103.00390625 C-69.28285203 101.76162278 -69.99151132 100.51935415 -70.70019531 99.27709961 C-75.8790339 90.19011333 -81.00362609 81.07327403 -86.09594727 71.9375 C-88.9245605 66.86815413 -91.77545794 61.81387806 -94.67578125 56.78515625 C-95.51834473 55.32323853 -95.51834473 55.32323853 -96.37792969 53.83178711 C-97.4424527 51.98923331 -98.51063503 50.14878731 -99.58300781 48.31079102 C-100.0519043 47.49924561 -100.52080078 46.6877002 -101.00390625 45.8515625 C-101.41753418 45.14136963 -101.83116211 44.43117676 -102.25732422 43.69946289 C-103.13671875 41.94140625 -103.13671875 41.94140625 -103.13671875 39.94140625 C-101.54557292 39.0234375 -99.95442708 38.10546875 -98.36328125 37.1875 C-97.32349121 36.58752197 -96.28370117 35.98754395 -95.21240234 35.36938477 C-92.88494621 34.02682428 -90.55720145 32.68477876 -88.22900391 31.34350586 C-82.20537777 27.87228179 -76.18767378 24.39166461 -70.18359375 20.88671875 C-22.00838247 -7.18957215 -22.00838247 -7.18957215 0 0 Z " fill="#000000" transform="translate(211.13671875,313.05859375)"/>
<path d="M0 0 C1.25425781 -0.02835938 2.50851562 -0.05671875 3.80078125 -0.0859375 C11.82309207 0.86545213 17.60789731 5.56587072 23.8125 10.4375 C33.27241423 17.83425199 40.57906331 20.31905699 52.5 20.8125 C72.0723946 21.82937549 72.0723946 21.82937549 79.6875 29.375 C84.90003523 36.74268924 86.46910106 44.80154166 88.27148438 53.4921875 C90.82319623 64.79159889 96.14561397 71.3407444 104.75 78.8125 C112.47420129 85.83442167 117.6684817 91.42769241 118.3125 102.25 C117.93122955 110.32881169 114.497103 116.9027004 110.83203125 123.9609375 C110.36132202 124.87576904 110.36132202 124.87576904 109.88110352 125.80908203 C108.98527578 127.53305788 108.06363571 129.24354865 107.140625 130.953125 C104.2084397 137.85794846 104.62691913 143.95725271 105.625 151.1875 C107.09044981 163.26572251 108.02482413 172.38142619 101.0078125 182.890625 C98.15770993 185.94224998 95.04059105 187.52307557 91.3125 189.25 C90.6107666 189.59023193 89.9090332 189.93046387 89.18603516 190.28100586 C85.71992377 191.95947712 82.23112269 193.58581019 78.734375 195.19921875 C71.99815951 198.3519473 66.7530278 201.03098958 62.6875 207.375 C61.97078125 208.4784375 61.2540625 209.581875 60.515625 210.71875 C59.33503717 212.54526975 58.16372924 214.37483993 57.02026367 216.22485352 C52.59034876 223.3499402 48.13869101 229.40101232 39.7590332 231.96508789 C31.78198828 233.54357445 24.60249794 231.85371207 17 229.4375 C8.16293175 226.70327429 1.11588406 224.52688008 -8.0625 227.125 C-9.11074951 227.4019873 -9.11074951 227.4019873 -10.18017578 227.68457031 C-13.28488189 228.51087454 -16.36728785 229.39139537 -19.4453125 230.3125 C-27.75428802 232.77441867 -35.08238048 233.63904964 -43.328125 230.51953125 C-51.36544582 225.88383243 -55.27186039 218.70151746 -60.1015625 211.03515625 C-66.35641061 201.32223132 -72.91427835 197.34778581 -83.375 192.8125 C-85.51468352 191.88047489 -87.65151903 190.94187838 -89.78515625 189.99609375 C-90.72625244 189.5880249 -91.66734863 189.17995605 -92.63696289 188.75952148 C-98.97203508 185.48128493 -102.57480621 181.11104164 -105.5625 174.6875 C-107.02740252 168.21751388 -106.5119553 161.8932938 -105.75390625 155.34375 C-105.65239258 154.43568604 -105.55087891 153.52762207 -105.44628906 152.59204102 C-105.23687142 150.78032378 -105.00921744 148.97059315 -104.76074219 147.16381836 C-103.63304876 137.49049316 -106.6136693 129.91095212 -111.375 121.625 C-116.17544626 113.15155175 -118.48795129 106.17455184 -117.3125 96.375 C-114.68343782 87.86417547 -108.91971934 82.2129088 -102.23046875 76.640625 C-93.26534489 69.1668315 -89.5701789 61.59944685 -87.1875 50.25 C-85.01932906 40.2020764 -82.82325384 31.36723959 -73.71582031 25.3137207 C-67.73244332 21.99309054 -62.06064492 21.59241824 -55.3125 21.25 C-39.61510629 20.33690903 -30.38532964 16.19858871 -18.09765625 6.62109375 C-12.01458593 1.9570188 -7.83968811 0.08007853 0 0 Z M-58.7421875 63.359375 C-73.58129869 80.76939603 -79.74358245 101.24362188 -78.51513672 123.95019531 C-76.81333598 144.31439399 -65.52823976 163.79935806 -50.2890625 177.0234375 C-31.69969559 191.70952527 -11.44320027 195.94734072 11.6875 194.375 C31.10210764 192.03527057 49.0590265 180.86680196 61.62890625 166.12890625 C75.34338675 147.78221033 81.091015 126.787648 78.41503906 104.06103516 C76.01534205 88.76211694 69.14278453 74.76986077 58.6875 63.375 C58.02363281 62.61960937 57.35976563 61.86421875 56.67578125 61.0859375 C43.31375829 46.71126585 24.23282199 38.21818808 4.7265625 37.16015625 C-20.02622468 36.39463515 -41.60862817 45.47653465 -58.7421875 63.359375 Z " fill="#000000" transform="translate(302.3125,15.625)"/>
<path d="M0 0 C10.25639812 7.85566227 17.72667898 17.8880509 22.1328125 30.03515625 C22.45121094 30.91042969 22.76960938 31.78570312 23.09765625 32.6875 C28.1997177 49.4514162 25.69667671 67.16910395 18.0703125 82.66015625 C9.50780998 97.57197208 -3.73569552 108.67760595 -20.2722168 113.69458008 C-36.58062094 117.84465045 -54.02078844 116.10907332 -68.9375 108.4609375 C-84.90173179 98.92242018 -95.3632311 85.28964785 -100.6796875 67.53515625 C-104.42191853 50.95320153 -102.28102724 33.25149164 -93.546875 18.5859375 C-83.05281187 2.64960442 -68.62196513 -7.19462161 -50.01171875 -11.234375 C-32.43726703 -14.59690701 -14.63583475 -10.02973417 0 0 Z M-12.8671875 23.03515625 C-16.40469618 26.06836678 -19.62869498 29.37540839 -22.8671875 32.72265625 C-23.73085938 33.59599609 -24.59453125 34.46933594 -25.484375 35.36914062 C-29.92866619 39.89110559 -34.24421114 44.49048963 -38.3762207 49.29980469 C-40.76894945 52.08472624 -43.08421197 54.62324413 -45.8671875 57.03515625 C-49.26380577 56.76823392 -50.90963112 55.34364443 -53.21484375 52.9453125 C-54.12266602 52.0162207 -54.12266602 52.0162207 -55.04882812 51.06835938 C-55.66951172 50.41802734 -56.29019531 49.76769531 -56.9296875 49.09765625 C-58.16833746 47.81554488 -59.40914204 46.53551074 -60.65234375 45.2578125 C-61.19769775 44.68812744 -61.74305176 44.11844238 -62.30493164 43.53149414 C-65.17308112 40.78436363 -66.73663894 40.04778998 -70.7421875 39.66015625 C-74.88258005 39.75165664 -76.95051042 41.03009502 -79.8671875 44.03515625 C-81.49742564 47.29563254 -81.334541 49.4131666 -80.8671875 53.03515625 C-76.03220524 60.06186597 -69.07241615 65.97984573 -63.0546875 71.97265625 C-62.09162837 72.93928527 -61.12873669 73.90608115 -60.16601562 74.87304688 C-59.25658203 75.78119141 -58.34714844 76.68933594 -57.41015625 77.625 C-56.58539795 78.44863037 -55.76063965 79.27226074 -54.91088867 80.12084961 C-52.46657122 82.41040798 -51.44834352 82.96911579 -48.1171875 83.34765625 C-40.21310824 82.58764863 -34.69740279 75.13112532 -29.4296875 69.78515625 C-28.60919922 68.96402344 -27.78871094 68.14289063 -26.94335938 67.296875 C-22.66798041 62.99078701 -18.5725266 58.59880236 -14.6159668 54 C-11.40545686 50.39282647 -7.93704348 47.04157105 -4.4921875 43.66015625 C-3.06542759 42.25882878 -1.64083243 40.85529275 -0.21875 39.44921875 C0.40177246 38.84029785 1.02229492 38.23137695 1.66162109 37.60400391 C3.90218685 35.21471158 4.12975534 34.06756213 4.4453125 30.72265625 C4.07702719 26.37688962 3.31377465 24.9649898 0.1328125 22.03515625 C-4.89364825 19.35437718 -8.21088505 20.13875503 -12.8671875 23.03515625 Z " fill="#000000" transform="translate(340.8671875,79.96484375)"/>
<path d="M0 0 C0.9178125 -0.01933594 1.835625 -0.03867187 2.78125 -0.05859375 C6.33978312 0.59073629 7.83642714 2.00773562 10.5 4.4375 C12.25415039 7.03686523 12.25415039 7.03686523 13.84765625 9.99609375 C14.44634521 11.09300537 15.04503418 12.18991699 15.66186523 13.32006836 C16.12627518 14.18872025 16.12627518 14.18872025 16.60006714 15.07492065 C17.58063236 16.90891372 18.57370296 18.73560534 19.57055664 20.56079102 C20.58702992 22.4220419 21.60284299 24.2836083 22.61479187 26.14732361 C25.48462493 31.43160799 28.43944824 36.66268395 31.4375 41.875 C31.91147217 42.70153076 32.38544434 43.52806152 32.8737793 44.37963867 C33.87116512 46.11849668 34.86914768 47.85701253 35.86767578 49.59521484 C39.04220846 55.12287106 42.20968274 60.65456341 45.375 66.1875 C45.71322784 66.77849487 46.05145569 67.36948975 46.39993286 67.97839355 C51.86290562 77.52748567 57.24952005 87.11746573 62.60375977 96.72802734 C66.48841295 103.68283695 70.46404617 110.57632328 74.56982422 117.40307617 C77.09447499 121.62473887 78.64898235 124.87947142 78.75 129.8125 C78.77578125 130.56273437 78.8015625 131.31296875 78.828125 132.0859375 C78.39654348 135.17893841 77.30003384 136.88548235 75.5 139.4375 C73.11157227 141.16674805 73.11157227 141.16674805 70.31640625 142.69921875 C69.30642578 143.26060547 68.29644531 143.82199219 67.25585938 144.40039062 C66.20205078 144.96951172 65.14824219 145.53863281 64.0625 146.125 C63.01255859 146.70572266 61.96261719 147.28644531 60.88085938 147.88476562 C48.45147074 154.73716917 48.45147074 154.73716917 43.5625 154.8125 C42.72847656 154.84085938 41.89445312 154.86921875 41.03515625 154.8984375 C37.61029829 154.27573605 36.07209084 152.7576876 33.5 150.4375 C31.86938477 148.06933594 31.86938477 148.06933594 30.44140625 145.421875 C29.89790527 144.43034424 29.3544043 143.43881348 28.79443359 142.41723633 C28.22289551 141.35142334 27.65135742 140.28561035 27.0625 139.1875 C25.81841445 136.91426439 24.57226705 134.64215615 23.32421875 132.37109375 C22.6904834 131.21464355 22.05674805 130.05819336 21.40380859 128.86669922 C18.48421397 123.60783462 15.43172108 118.42995249 12.375 113.25 C7.38214605 104.75625804 2.57966553 96.18013862 -2.10424805 87.51269531 C-6.41289286 79.55232911 -10.88827801 71.69511177 -15.3984375 63.84765625 C-19.38061478 56.9167165 -23.30196744 49.95146461 -27.22436523 42.98657227 C-27.73942627 42.07319092 -28.2544873 41.15980957 -28.78515625 40.21875 C-29.23769775 39.41501953 -29.69023926 38.61128906 -30.15649414 37.78320312 C-31.11983354 36.1012542 -32.1205457 34.44050035 -33.14477539 32.79492188 C-34.6851476 30.11543457 -34.90374358 28.50348225 -34.875 25.4375 C-34.88273437 24.6125 -34.89046875 23.7875 -34.8984375 22.9375 C-34.25922324 18.92674384 -32.57674678 16.23515248 -29.31103516 13.81591797 C-28.47878418 13.35846191 -27.6465332 12.90100586 -26.7890625 12.4296875 C-25.87382813 11.91792969 -24.95859375 11.40617187 -24.015625 10.87890625 C-23.06171875 10.36199219 -22.1078125 9.84507812 -21.125 9.3125 C-19.24207765 8.26842725 -17.35926175 7.2241625 -15.4765625 6.1796875 C-14.64205566 5.7244873 -13.80754883 5.26928711 -12.94775391 4.80029297 C-11.22626835 3.84185168 -9.53152799 2.834555 -7.85888672 1.79321289 C-5.0546549 0.18154871 -3.2156703 0.00451639 0 0 Z M-10.9375 24.0625 C-12.97161336 27.15435231 -13.10605429 28.80117425 -12.5 32.4375 C-10.53600004 35.12890735 -9.14117537 36.21308862 -6 37.3125 C-3.08840581 37.45807971 -1.8538515 37.14201315 0.5 35.4375 C2.42199114 32.87484514 2.51028636 31.60551051 2.3125 28.375 C1.3411184 24.68548251 1.3411184 24.68548251 -1.5 22.4375 C-5.43094707 21.93719765 -7.6005787 21.8378858 -10.9375 24.0625 Z " fill="#000000" transform="translate(76.5,341.5625)"/>
<path d="M0 0 C3.34420982 2.7396033 4.82020376 6.43671113 6.58203125 10.2734375 C6.91869308 10.99302643 7.25535492 11.71261536 7.60221863 12.45401001 C8.67845463 14.75820167 9.74556712 17.06648821 10.8125 19.375 C11.51828713 20.88959942 12.22466178 22.40392522 12.93164062 23.91796875 C14.31284034 26.87784886 15.68576608 29.84136536 17.05322266 32.80761719 C18.29338863 35.49299114 19.55687527 38.16451014 20.84912109 40.82519531 C21.39777832 41.96827148 21.94643555 43.11134766 22.51171875 44.2890625 C22.99471436 45.2785791 23.47770996 46.2680957 23.9753418 47.28759766 C25.02821975 50.0747013 25.21405801 52.05023363 25 55 C21.29248012 56.30158815 18.43835043 55.73063529 14.625 55.00390625 C13.39265625 54.77509766 12.1603125 54.54628906 10.890625 54.31054688 C9.60671875 54.06369141 8.3228125 53.81683594 7 53.5625 C4.45890954 53.08158077 1.91726336 52.60358618 -0.625 52.12890625 C-2.31496094 51.80515015 -2.31496094 51.80515015 -4.0390625 51.47485352 C-7.15846002 50.8944338 -7.15846002 50.8944338 -11 51 C-11.37286133 51.66531738 -11.74572266 52.33063477 -12.12988281 53.01611328 C-13.83411959 56.05380161 -15.54202472 59.08941224 -17.25 62.125 C-18.12978516 63.69507813 -18.12978516 63.69507813 -19.02734375 65.296875 C-21.85847978 70.32293671 -24.69416629 75.27036662 -28 80 C-30.2890625 79.88989258 -30.2890625 79.88989258 -33 79 C-34.7734375 76.32299805 -34.7734375 76.32299805 -36.375 72.76171875 C-36.66681152 72.12571243 -36.95862305 71.48970612 -37.25927734 70.83442688 C-38.19058952 68.79296155 -39.09522657 66.74084375 -40 64.6875 C-40.60770039 63.34754655 -41.21705987 62.00834423 -41.828125 60.66992188 C-45.38031104 52.84756239 -48.74897647 44.9524605 -52 37 C-50.96101563 36.90203125 -49.92203125 36.8040625 -48.8515625 36.703125 C-35.07819291 35.28542409 -25.74524716 32.48601764 -16 22 C-13.46558439 18.78599311 -11.22556205 15.43238091 -9 12 C-7.73655901 10.16156443 -6.46585326 8.32809776 -5.1875 6.5 C-4.62417969 5.6853125 -4.06085938 4.870625 -3.48046875 4.03125 C-2 2 -2 2 0 0 Z " fill="#000000" transform="translate(381,226)"/>
<path d="M0 0 C4.19121142 2.97488083 6.66794354 6.26766907 9.25 10.625 C16.56005178 22.415555 24.54641503 31.66116115 38.2578125 35.44140625 C43.12925586 36.4337373 48.0418822 36.75294602 53 37 C51.10646032 41.41381432 49.17937456 45.81169413 47.23339844 50.20263672 C46.33948728 52.23003856 45.45308101 54.26075481 44.57128906 56.29345703 C43.02446538 59.84996846 41.4516658 63.39413063 39.875 66.9375 C39.37258789 68.10522949 38.87017578 69.27295898 38.35253906 70.47607422 C37.86237305 71.56549316 37.37220703 72.65491211 36.8671875 73.77734375 C36.43519043 74.75952881 36.00319336 75.74171387 35.55810547 76.75366211 C34 79 34 79 31.32080078 79.82641602 C30.55493652 79.88369873 29.78907227 79.94098145 29 80 C26.91581383 76.47967086 24.8328058 72.95864599 22.75 69.4375 C22.16347656 68.44685547 21.57695312 67.45621094 20.97265625 66.43554688 C17.94266587 61.3117991 14.93454812 56.1790416 12 51 C11.15574463 51.12060791 11.15574463 51.12060791 10.29443359 51.24365234 C9.50375488 51.35660645 8.71307617 51.46956055 7.8984375 51.5859375 C7.02155273 51.71129883 6.14466797 51.83666016 5.24121094 51.96582031 C3.3252992 52.23933548 1.40928275 52.51211811 -0.50683594 52.78417969 C-4.83277689 53.39924931 -9.15741749 54.01841151 -13.4765625 54.6796875 C-14.72179687 54.86789062 -15.96703125 55.05609375 -17.25 55.25 C-18.34828125 55.42015625 -19.4465625 55.5903125 -20.578125 55.765625 C-21.37734375 55.84296875 -22.1765625 55.9203125 -23 56 C-23.33 55.67 -23.66 55.34 -24 55 C-23.63410779 48.93529952 -21.53208198 44.25766325 -18.88671875 38.84765625 C-18.47589554 37.98869247 -18.06507233 37.1297287 -17.64179993 36.24473572 C-16.33257782 33.51295243 -15.01022297 30.78776751 -13.6875 28.0625 C-12.80968764 26.23543861 -11.93272608 24.4079682 -11.05664062 22.58007812 C-7.42826058 15.02409362 -3.7629111 7.48999514 0 0 Z " fill="#000000" transform="translate(223,226)"/>
</svg>
