<?xml version="1.0" encoding="UTF-8"?>
<svg version="1.1" xmlns="http://www.w3.org/2000/svg" width="512" height="512">
<path d="M0 0 C0.66725098 0.34796631 1.33450195 0.69593262 2.02197266 1.05444336 C12.04856544 6.3686044 21.81550548 12.17595942 31.61279297 17.89697266 C35.22062473 19.99824286 38.84546424 22.06910243 42.47265625 24.13671875 C44.25878813 25.15729459 46.04472627 26.17820873 47.83062744 27.19918823 C49.53112288 28.16959431 51.23404637 29.13574158 52.93701172 30.10180664 C53.96713379 30.6921167 54.99725586 31.28242676 56.05859375 31.890625 C56.96665771 32.40786133 57.87472168 32.92509766 58.81030273 33.45800781 C60.89850796 34.79273239 62.47078204 36.10683668 64.125 37.9375 C58.66741396 41.86313206 52.94775175 45.20911924 47.0625 48.4375 C39.85260133 52.39422568 32.72122596 56.46781987 25.625 60.625 C17.18231393 65.56918268 8.72696465 70.48978593 0.25 75.375 C-0.82958984 75.99721436 -1.90917969 76.61942871 -3.02148438 77.26049805 C-5.2118252 78.52261517 -7.40225502 79.78457785 -9.59277344 81.04638672 C-15.02159942 84.17430148 -20.44819281 87.30608448 -25.875 90.4375 C-28.04165583 91.68751879 -30.2083225 92.93751878 -32.375 94.1875 C-33.4475 94.80625 -34.52 95.425 -35.625 96.0625 C-56.20833333 107.9375 -76.79166667 119.8125 -97.375 131.6875 C-98.44943359 132.30737793 -99.52386719 132.92725586 -100.63085938 133.56591797 C-102.77795136 134.80460002 -104.92508614 136.0432079 -107.07226562 137.28173828 C-112.17088809 140.2228335 -117.26905296 143.16471413 -122.36572266 146.10919189 C-124.78547665 147.50708601 -127.20547263 148.90456089 -129.62548828 150.30200195 C-131.34301052 151.29402324 -133.06018052 152.28665429 -134.77734375 153.27929688 C-135.80988281 153.87548828 -136.84242188 154.47167969 -137.90625 155.0859375 C-139.27620117 155.87750244 -139.27620117 155.87750244 -140.67382812 156.68505859 C-142.05488691 157.47086511 -143.45378495 158.22689248 -144.875 158.9375 C-144.92131192 170.86371083 -144.95686342 182.78990032 -144.97862434 194.71618271 C-144.98906775 200.2538546 -145.00323718 205.79146504 -145.02587891 211.32910156 C-145.04758732 216.67182267 -145.05956443 222.0144846 -145.06475449 227.3572464 C-145.06845383 229.39702537 -145.07567759 231.43680105 -145.08646011 233.47655487 C-145.10094835 236.33047012 -145.10297905 239.18413991 -145.10205078 242.03808594 C-145.11283661 243.3069162 -145.11283661 243.3069162 -145.12384033 244.60137939 C-145.16453355 250.09978025 -145.16453355 250.09978025 -142.875 254.9375 C-140.60748565 256.63566608 -140.60748565 256.63566608 -137.8359375 258.1171875 C-136.79139404 258.71007568 -135.74685059 259.30296387 -134.6706543 259.91381836 C-133.54183838 260.5403833 -132.41302246 261.16694824 -131.25 261.8125 C-129.48895958 262.80295576 -127.72978131 263.79666432 -125.97068787 264.79057312 C-124.7617528 265.47327562 -123.55207693 266.15466786 -122.34169006 266.83479309 C-118.18610086 269.17497438 -114.07936158 271.58380874 -109.98828125 274.03515625 C-108.36623779 275.00316162 -108.36623779 275.00316162 -106.71142578 275.99072266 C-104.64662835 277.22627131 -102.58622207 278.4691946 -100.53076172 279.72021484 C-99.59635254 280.27531738 -98.66194336 280.83041992 -97.69921875 281.40234375 C-96.88541748 281.893396 -96.07161621 282.38444824 -95.2331543 282.89038086 C-92.59168079 284.06330558 -90.73374296 284.14353267 -87.875 283.9375 C-86.27203422 280.73156844 -86.92874517 277.28504136 -87.08227539 273.77856445 C-87.14835107 272.02783038 -87.21289894 270.27703816 -87.27613831 268.52619934 C-87.31000704 267.59424051 -87.34387577 266.66228168 -87.37877083 265.70208168 C-87.57249007 259.71565997 -87.65733341 253.72666401 -87.74883366 247.7379427 C-87.83504492 242.48182599 -87.96802163 237.23561336 -88.20874023 231.98413086 C-89.75939885 196.98856235 -89.75939885 196.98856235 -83.43035889 189.63201904 C-77.42896967 184.46179423 -70.77696543 181.69261183 -63.32662964 179.21786499 C-57.43216667 177.03134302 -52.22587402 173.69761045 -46.875 170.4375 C-44.71128494 169.18239778 -42.5449496 167.93179223 -40.375 166.6875 C-39.3025 166.06875 -38.23 165.45 -37.125 164.8125 C0.79166667 142.9375 38.70833333 121.0625 76.625 99.1875 C78.23652954 98.25768311 78.23652954 98.25768311 79.88061523 97.30908203 C82.0283582 96.07011766 84.17630455 94.83150576 86.32446289 93.59326172 C91.41679437 90.65735895 96.50691695 87.71780245 101.5899353 84.76580811 C103.99934008 83.36681947 106.4099009 81.96982971 108.82055664 80.57299805 C110.52798982 79.58251929 112.23373972 78.5891406 113.93945312 77.59570312 C114.96876953 76.99951172 115.99808594 76.40332031 117.05859375 75.7890625 C117.96665771 75.26135254 118.87472168 74.73364258 119.81030273 74.18994141 C122.125 72.9375 122.125 72.9375 125.125 71.9375 C127.43969727 72.96289062 127.43969727 72.96289062 130.19140625 74.59375 C131.22152832 75.19678955 132.25165039 75.7998291 133.31298828 76.42114258 C134.42657715 77.08654053 135.54016602 77.75193848 136.6875 78.4375 C137.85078705 79.12302967 139.01469681 79.80750368 140.17919922 80.4909668 C142.60859234 81.9176752 145.03520732 83.348963 147.46044922 84.78271484 C152.09540532 87.51610326 156.76750475 90.18309508 161.4387207 92.85400391 C169.84463587 97.66712321 178.23733342 102.50640083 186.5 107.5625 C187.44480225 108.12868042 187.44480225 108.12868042 188.40869141 108.70629883 C193.8913527 112.1185361 197.04573189 115.84949442 199.125 121.9375 C199.37109566 124.39558887 199.37109566 124.39558887 199.36550903 127.01850891 C199.36963303 128.51812416 199.36963303 128.51812416 199.37384033 130.04803467 C199.36664978 131.13344543 199.35945923 132.2188562 199.35205078 133.3371582 C199.35234283 134.48880966 199.35263489 135.64046112 199.35293579 136.82701111 C199.35154327 140.63084465 199.3359854 144.43448195 199.3203125 148.23828125 C199.3165821 150.87672315 199.31373526 153.51516644 199.31173706 156.15361023 C199.30552692 162.38668773 199.28912243 168.61969487 199.26903808 174.85274142 C199.24666456 181.95065678 199.235682 189.04857554 199.22564721 196.1465174 C199.20475577 210.74354785 199.16958886 225.34052294 199.125 239.9375 C198.03367264 239.66261749 196.94234528 239.38773499 195.81794739 239.10452271 C194.36798204 238.74037264 192.91800481 238.37626992 191.46801758 238.01220703 C190.75087837 237.83144119 190.03373917 237.65067535 189.29486847 237.46443176 C183.82806346 236.09330832 178.35216728 234.8556585 172.8125 233.8125 C171.94729736 233.64782227 171.08209473 233.48314453 170.19067383 233.31347656 C161.22166894 231.66957947 152.2040106 230.72607692 143.125 229.9375 C143.08761719 228.99648437 143.05023438 228.05546875 143.01171875 227.0859375 C142.94597656 225.84070313 142.88023437 224.59546875 142.8125 223.3125 C142.75449219 222.08273438 142.69648438 220.85296875 142.63671875 219.5859375 C142.10193549 215.7730553 141.00386364 213.26799213 139.125 209.9375 C138.691875 208.82375 138.691875 208.82375 138.25 207.6875 C136.63361427 205.17312221 134.94017559 204.83323769 132.125 203.9375 C131.238125 203.545625 130.35125 203.15375 129.4375 202.75 C124.07313024 201.43421119 119.0522083 201.59342795 113.97265625 203.92578125 C107.70118237 207.88486811 102.18413906 213.05807262 96.60546875 217.921875 C93.63719504 220.50664872 90.61872858 223.01932395 87.5625 225.5 C81.34010641 230.55626419 75.23388035 235.74530978 69.125 240.9375 C62.99391962 246.14855894 56.86416756 251.35574323 50.625 256.4375 C49.74714844 257.15808594 48.86929687 257.87867188 47.96484375 258.62109375 C45.88515282 260.31745787 43.79417094 261.99301013 41.69140625 263.66015625 C34.34041683 269.57091438 29.22885418 274.38637439 27.125 283.9375 C26.4863338 291.34602797 28.04002196 297.67643063 32.45703125 303.77734375 C36.98394443 308.64807313 42.63946019 312.29347467 48.06640625 316.08203125 C52.53761835 319.20868364 56.92606747 322.44342367 61.3125 325.6875 C62.51567871 326.57610718 62.51567871 326.57610718 63.74316406 327.48266602 C65.38549341 328.69580214 67.02758187 329.90926442 68.66943359 331.12304688 C73.4327684 334.64274306 78.20181707 338.1547027 82.97241211 341.66455078 C87.0891809 344.69463597 91.19832557 347.73436718 95.296875 350.7890625 C96.14701172 351.42070312 96.99714844 352.05234375 97.87304688 352.703125 C99.4912585 353.90573036 101.10729811 355.11126628 102.72070312 356.3203125 C110.20030772 361.86948547 116.46903712 366.27151129 126.125 365.9375 C132.4116561 364.96510355 135.80564539 361.65189461 139.77734375 356.875 C142.42710936 353.0654819 142.39752343 349.26534942 142.6875 344.75 C142.77128906 343.47769531 142.85507812 342.20539063 142.94140625 340.89453125 C143.00199219 339.91871094 143.06257813 338.94289063 143.125 337.9375 C160.93850182 337.46509774 178.867606 344.9642966 192.53515625 356.17578125 C194.125 357.9375 194.125 357.9375 194.125 360.9375 C187.72995031 366.6844566 179.56115374 370.64818717 172.0625 374.75 C169.82996153 375.98559317 167.59819114 377.22257517 165.3671875 378.4609375 C164.29178711 379.05745117 163.21638672 379.65396484 162.10839844 380.26855469 C158.2684998 382.41663546 154.47007176 384.62788063 150.6875 386.875 C143.71745682 391.01093729 136.70998582 395.07871301 129.6875 399.125 C128.58027588 399.76300537 127.47305176 400.40101074 126.33227539 401.05834961 C124.06162932 402.36639477 121.79087642 403.67425448 119.52001953 404.98193359 C114.0533002 408.13082054 108.58925113 411.28433264 103.125 414.4375 C100.95834689 415.6875235 98.79168021 416.93752347 96.625 418.1875 C95.5525 418.80625 94.48 419.425 93.375 420.0625 C83.625 425.6875 83.625 425.6875 80.37451172 427.56274414 C78.20942929 428.81185518 76.04439018 430.06104129 73.87939453 431.31030273 C68.43884294 434.44952309 62.99752784 437.58740563 57.5546875 440.72265625 C55.36973328 441.98166951 53.18483723 443.24078374 51 444.5 C49.92814453 445.11770264 48.85628906 445.73540527 47.75195312 446.37182617 C41.38158705 450.0469262 35.02540498 453.74526349 28.67919922 457.46191406 C20.44410113 462.28316573 12.19793812 467.08159767 3.875 471.75 C3.14216797 472.16483643 2.40933594 472.57967285 1.65429688 473.00708008 C-4.09086635 476.20272423 -8.26382375 477.47939969 -14.875 476.9375 C-22.6485373 474.2651579 -29.7352215 469.7250469 -36.8125 465.625 C-38.05104927 464.91180811 -39.2898231 464.19900606 -40.52880859 463.48657227 C-43.70149601 461.66087445 -46.87119753 459.83006017 -50.0401001 457.99780273 C-52.88310815 456.3549615 -55.72874796 454.71669594 -58.57421875 453.078125 C-63.93756884 449.98826758 -69.29789036 446.89319987 -74.65722656 443.79638672 C-80.06170645 440.67425395 -85.46847412 437.55608796 -90.875 434.4375 C-93.0416775 433.18751878 -95.20834417 431.93751879 -97.375 430.6875 C-98.4475 430.06875 -99.52 429.45 -100.625 428.8125 C-121.20833333 416.9375 -141.79166667 405.0625 -162.375 393.1875 C-163.4489502 392.5680249 -164.52290039 391.9485498 -165.62939453 391.31030273 C-167.78180362 390.06830408 -169.9338262 388.82563534 -172.08544922 387.58227539 C-177.12022538 384.67389605 -182.15839178 381.77202627 -187.21099854 378.89474487 C-188.99319143 377.87942342 -190.77411912 376.86191725 -192.5546875 375.84375 C-194.7839786 374.56986937 -197.01560369 373.30006089 -199.25 372.03515625 C-218.10796236 361.23861291 -218.10796236 361.23861291 -220.875 352.9375 C-220.97583344 349.88734702 -221.01841214 346.85990687 -221.01544189 343.80949402 C-221.01989858 342.39092298 -221.01989858 342.39092298 -221.0244453 340.94369394 C-221.03314724 337.76087499 -221.03464181 334.57809359 -221.03613281 331.39526367 C-221.04075991 329.11887023 -221.04578442 326.84247757 -221.05117798 324.56608582 C-221.06431399 318.37184356 -221.07074922 312.17761215 -221.07518864 305.98335814 C-221.07811728 302.11566188 -221.08222168 298.24796859 -221.08669281 294.38027382 C-221.0988029 283.67179928 -221.10918466 272.96332838 -221.1125679 262.25484753 C-221.11278747 261.56947645 -221.11300703 260.88410538 -221.11323325 260.17796548 C-221.11345153 259.4909546 -221.11366981 258.80394373 -221.1138947 258.09611434 C-221.11433817 256.7039688 -221.11478473 255.31182327 -221.11523438 253.91967773 C-221.1154558 253.22912547 -221.11567723 252.53857321 -221.11590537 251.82709513 C-221.11985336 240.63775186 -221.13730749 229.44847371 -221.1605939 218.25915559 C-221.18430859 206.77132018 -221.19651182 195.28352673 -221.19793582 183.79566556 C-221.19898522 177.34561841 -221.20492175 170.89566311 -221.22275543 164.44563866 C-221.239202 158.37917708 -221.24140817 152.31287672 -221.23261642 146.24640083 C-221.23184423 144.0187474 -221.23621262 141.79108541 -221.24607468 139.56345367 C-221.25874146 136.52426146 -221.25294584 133.4856448 -221.24249268 130.44645691 C-221.25457728 129.12169201 -221.25457728 129.12169201 -221.26690602 127.77016419 C-221.21943055 121.8752569 -220.22374056 117.64142108 -216.23632812 113.05102539 C-210.71486388 108.28898345 -204.78310299 104.81924913 -198.375 101.375 C-196.13047299 100.1438165 -193.88700852 98.91069422 -191.64453125 97.67578125 C-189.94611084 96.74306396 -189.94611084 96.74306396 -188.21337891 95.79150391 C-183.11641493 92.96085125 -178.08805845 90.01754523 -173.0625 87.0625 C-164.36705422 81.96068298 -155.63485001 76.92755302 -146.875 71.9375 C-137.15357016 66.39796897 -127.46604696 60.80374813 -117.80810547 55.15405273 C-107.28415375 48.99983258 -96.72119863 42.91380004 -86.15722656 36.82861328 C-79.65652037 33.08311565 -73.15874968 29.33252735 -66.66064453 25.58251953 C-61.63846298 22.68455111 -56.61572934 19.78755713 -51.59057617 16.89474487 C-49.82454478 15.87802802 -48.05872569 14.86094342 -46.29296875 13.84375 C-44.08765845 12.57349127 -41.88195784 11.30390982 -39.67578125 10.03515625 C-34.05963486 6.79922043 -28.47832739 3.51757709 -22.94580078 0.14038086 C-15.08590192 -4.42525481 -7.86407087 -4.12469641 0 0 Z " fill="#000000" transform="translate(228.875,19.0625)"/>
<path d="M0 0 C2.5625 0.9375 2.5625 0.9375 3.5625 1.9375 C3.64998207 3.86417507 3.66947334 5.79401861 3.66015625 7.72265625 C3.65532227 9.47739258 3.65532227 9.47739258 3.65039062 11.26757812 C3.63782227 13.11512695 3.63782227 13.11512695 3.625 15 C3.62048828 16.23556641 3.61597656 17.47113281 3.61132812 18.74414062 C3.59949608 21.80864117 3.58301173 24.87304721 3.5625 27.9375 C4.31345947 27.92879883 5.06441895 27.92009766 5.83813477 27.91113281 C36.83665158 27.70628068 67.31011446 33.90702236 94.5625 48.9375 C95.50480469 49.45183594 96.44710937 49.96617187 97.41796875 50.49609375 C103.62907667 54.04942526 109.10996589 58.31988517 114.5625 62.9375 C115.3875 63.61554688 116.2125 64.29359375 117.0625 64.9921875 C135.31603961 80.56473848 147.29604879 103.18531296 150.5625 126.9375 C152.67875696 157.1118365 146.63894935 184.66730203 126.90625 208.30859375 C107.90101305 229.62613453 83.67315629 245.34654545 55.5625 251.9375 C52.46875 252.11328125 52.46875 252.11328125 50.5625 251.9375 C52.0349959 247.44989345 55.46756702 246.04430621 59.375 243.9375 C67.53354652 239.29560234 73.98632937 233.58704492 80.5625 226.9375 C81.24957031 226.26074219 81.93664062 225.58398438 82.64453125 224.88671875 C92.62986739 214.36041632 99.51096984 199.39603966 100.5625 184.9375 C100.62566406 184.10476563 100.68882812 183.27203125 100.75390625 182.4140625 C101.52059472 163.96407541 93.88825956 147.39852689 81.5625 133.9375 C61.5284421 112.93279976 31.30401897 107.29074483 3.5625 105.9375 C3.57821045 106.77522949 3.5939209 107.61295898 3.61010742 108.47607422 C3.66120007 111.58086877 3.69883234 114.68544931 3.72729492 117.79052734 C3.74982251 119.79669374 3.7879357 121.80266526 3.82617188 123.80859375 C3.83583984 125.06542969 3.84550781 126.32226562 3.85546875 127.6171875 C3.8711792 128.77976074 3.88688965 129.94233398 3.90307617 131.14013672 C3.79068604 132.0632666 3.6782959 132.98639648 3.5625 133.9375 C0.5625 135.9375 0.5625 135.9375 -2.08203125 135.94921875 C-6.86043291 134.50846668 -10.20857301 131.77926272 -14.125 128.75 C-15.82660171 127.46455088 -17.52843096 126.17940291 -19.23046875 124.89453125 C-20.09591309 124.23533691 -20.96135742 123.57614258 -21.85302734 122.89697266 C-25.84936003 119.86706843 -29.8939419 116.90389798 -33.9375 113.9375 C-35.51981824 112.77252512 -37.10184866 111.60715921 -38.68359375 110.44140625 C-39.46718262 109.86406738 -40.25077148 109.28672852 -41.05810547 108.69189453 C-43.44739519 106.930204 -45.83520073 105.16651902 -48.22265625 103.40234375 C-49.01285156 102.8189624 -49.80304688 102.23558105 -50.6171875 101.63452148 C-52.19472364 100.46963388 -53.77155719 99.30379413 -55.34765625 98.13696289 C-59.37740141 95.16124795 -63.4296673 92.22535698 -67.52734375 89.34375 C-68.35097412 88.76117432 -69.17460449 88.17859863 -70.02319336 87.57836914 C-71.58988222 86.47302096 -73.16203438 85.37536084 -74.74047852 84.28686523 C-79.21704938 81.12105972 -82.66856366 78.44984481 -83.8984375 72.83203125 C-83.73119146 68.78011573 -82.97814357 66.56594882 -80.296875 63.44921875 C-77.43145839 60.81712892 -74.48078823 58.36135788 -71.4375 55.9375 C-70.55191406 55.20789063 -69.66632813 54.47828125 -68.75390625 53.7265625 C-66.97188244 52.25963651 -65.18255172 50.80155032 -63.38671875 49.3515625 C-60.023814 46.5988802 -56.72823541 43.77564781 -53.4375 40.9375 C-48.4245511 36.61793221 -43.35211687 32.38652075 -38.21484375 28.21484375 C-35.09353134 25.65545537 -32.01316954 23.05136813 -28.9375 20.4375 C-23.97771746 16.22769048 -19.0012692 12.04190321 -13.9375 7.95703125 C-12.33638712 6.66363225 -10.75120694 5.35009987 -9.1875 4.01171875 C-4.22486505 -0.07681573 -4.22486505 -0.07681573 0 0 Z " fill="#000000" transform="translate(353.4375,235.0625)"/>
</svg>
